<svg width="19" height="20" viewBox="0 0 19 20" fill="none" xmlns="http://www.w3.org/2000/svg">
<path d="M6.71429 2C7.20759 2 7.64286 2.43527 7.64286 2.92857V3.85714H11.3571V2.92857C11.3571 2.43527 11.7634 2 12.2857 2C12.779 2 13.2143 2.43527 13.2143 2.92857V3.85714H14.6071C15.3616 3.85714 16 4.49554 16 5.25V6.64286H3V5.25C3 4.49554 3.60938 3.85714 4.39286 3.85714H5.78571V2.92857C5.78571 2.43527 6.19196 2 6.71429 2ZM3 7.57143H16V15.4643C16 16.2478 15.3616 16.8571 14.6071 16.8571H4.39286C3.60938 16.8571 3 16.2478 3 15.4643V7.57143ZM4.85714 9.89286V10.8214C4.85714 11.0826 5.06027 11.2857 5.32143 11.2857H6.25C6.48214 11.2857 6.71429 11.0826 6.71429 10.8214V9.89286C6.71429 9.66071 6.48214 9.42857 6.25 9.42857H5.32143C5.06027 9.42857 4.85714 9.66071 4.85714 9.89286ZM8.57143 9.89286V10.8214C8.57143 11.0826 8.77455 11.2857 9.03571 11.2857H9.96429C10.1964 11.2857 10.4286 11.0826 10.4286 10.8214V9.89286C10.4286 9.66071 10.1964 9.42857 9.96429 9.42857H9.03571C8.77455 9.42857 8.57143 9.66071 8.57143 9.89286ZM12.75 9.42857C12.4888 9.42857 12.2857 9.66071 12.2857 9.89286V10.8214C12.2857 11.0826 12.4888 11.2857 12.75 11.2857H13.6786C13.9107 11.2857 14.1429 11.0826 14.1429 10.8214V9.89286C14.1429 9.66071 13.9107 9.42857 13.6786 9.42857H12.75ZM4.85714 13.6071V14.5357C4.85714 14.7969 5.06027 15 5.32143 15H6.25C6.48214 15 6.71429 14.7969 6.71429 14.5357V13.6071C6.71429 13.375 6.48214 13.1429 6.25 13.1429H5.32143C5.06027 13.1429 4.85714 13.375 4.85714 13.6071ZM9.03571 13.1429C8.77455 13.1429 8.57143 13.375 8.57143 13.6071V14.5357C8.57143 14.7969 8.77455 15 9.03571 15H9.96429C10.1964 15 10.4286 14.7969 10.4286 14.5357V13.6071C10.4286 13.375 10.1964 13.1429 9.96429 13.1429H9.03571ZM12.2857 13.6071V14.5357C12.2857 14.7969 12.4888 15 12.75 15H13.6786C13.9107 15 14.1429 14.7969 14.1429 14.5357V13.6071C14.1429 13.375 13.9107 13.1429 13.6786 13.1429H12.75C12.4888 13.1429 12.2857 13.375 12.2857 13.6071Z" fill="#656E7B"/>
</svg>
