<svg width="19" height="20" viewBox="0 0 19 20" fill="none" xmlns="http://www.w3.org/2000/svg">
<path d="M9.50016 2.08334C5.12225 2.08334 1.5835 5.62209 1.5835 10C1.5835 14.3779 5.12225 17.9167 9.50016 17.9167C13.8781 17.9167 17.4168 14.3779 17.4168 10C17.4168 5.62209 13.8781 2.08334 9.50016 2.08334ZM9.50016 16.3333C6.00891 16.3333 3.16683 13.4913 3.16683 10C3.16683 6.50876 6.00891 3.66668 9.50016 3.66668C12.9914 3.66668 15.8335 6.50876 15.8335 10C15.8335 13.4913 12.9914 16.3333 9.50016 16.3333ZM12.3422 6.04168L9.50016 8.88376L6.65808 6.04168L5.54183 7.15793L8.38391 10L5.54183 12.8421L6.65808 13.9583L9.50016 11.1163L12.3422 13.9583L13.4585 12.8421L10.6164 10L13.4585 7.15793L12.3422 6.04168Z" fill="#C21405"/>
</svg>
