<svg width="19" height="20" viewBox="0 0 19 20" fill="none" xmlns="http://www.w3.org/2000/svg">
<path d="M9.49992 2.08331C5.122 2.08331 1.58325 5.62206 1.58325 9.99998C1.58325 14.3779 5.122 17.9166 9.49992 17.9166C13.8778 17.9166 17.4166 14.3779 17.4166 9.99998C17.4166 5.62206 13.8778 2.08331 9.49992 2.08331ZM9.49992 16.3333C6.00867 16.3333 3.16659 13.4912 3.16659 9.99998C3.16659 6.50873 6.00867 3.66665 9.49992 3.66665C12.9912 3.66665 15.8333 6.50873 15.8333 9.99998C15.8333 13.4912 12.9912 16.3333 9.49992 16.3333ZM12.342 6.04165L9.49992 8.88373L6.65783 6.04165L5.54159 7.1579L8.38367 9.99998L5.54159 12.8421L6.65783 13.9583L9.49992 11.1162L12.342 13.9583L13.4583 12.8421L10.6162 9.99998L13.4583 7.1579L12.342 6.04165Z" fill="#C21405"/>
</svg>
