<svg width="44" height="38" viewBox="0 0 44 38" fill="none" xmlns="http://www.w3.org/2000/svg">
<path d="M22 28C17.043 28 13 23.957 13 19C13 14.0078 17.043 10 22 10C26.9922 10 31 14.0078 31 19C31 23.957 26.9922 28 22 28ZM22 15.0625C21.7891 15.0625 21.543 15.1328 21.4023 15.3086L17.7461 19.2461C17.5 19.4922 17.4648 19.8438 17.5703 20.1602C17.7109 20.4766 18.0273 20.6875 18.3438 20.6875H25.6563C26.0078 20.6875 26.3242 20.4766 26.4297 20.1602C26.5703 19.8438 26.5352 19.4922 26.2891 19.2461L22.6328 15.3086C22.457 15.1328 22.2461 15.0625 22 15.0625Z" fill="#656E7B"/>
</svg>
