<svg width="44" height="38" viewBox="0 0 44 38" fill="none" xmlns="http://www.w3.org/2000/svg">
<path d="M22 10C26.957 10 31 14.043 31 19C31 23.9922 26.957 28 22 28C17.0078 28 13 23.9922 13 19C13 14.043 17.0078 10 22 10ZM22 22.9375C22.2109 22.9375 22.457 22.8672 22.5977 22.6914L26.2539 18.7539C26.5 18.5078 26.5352 18.1562 26.4297 17.8398C26.2891 17.5234 25.9727 17.3125 25.6562 17.3125H18.3437C17.9922 17.3125 17.6758 17.5234 17.5703 17.8398C17.4297 18.1562 17.4648 18.5078 17.7109 18.7539L21.3672 22.6914C21.543 22.8672 21.7539 22.9375 22 22.9375Z" fill="#0069F0"/>
</svg>
