<svg width="26" height="20" viewBox="0 0 26 20" fill="none" xmlns="http://www.w3.org/2000/svg">
<g clip-path="url(#clip0_117_4120)">
<path d="M2.375 0C1.33984 0 0.5 0.839844 0.5 1.875V18.125C0.5 19.1602 1.33984 20 2.375 20H6.125V16.875C6.125 15.8398 6.96484 15 8 15C9.03516 15 9.875 15.8398 9.875 16.875V20H13.3867C13.1406 19.6016 13 19.1328 13 18.6289C13 16.7969 14.0078 15.1992 15.5 14.3633V1.875C15.5 0.839844 14.6602 0 13.625 0H2.375ZM3 9.375C3 9.03125 3.28125 8.75 3.625 8.75H4.875C5.21875 8.75 5.5 9.03125 5.5 9.375V10.625C5.5 10.9688 5.21875 11.25 4.875 11.25H3.625C3.28125 11.25 3 10.9688 3 10.625V9.375ZM7.375 8.75H8.625C8.96875 8.75 9.25 9.03125 9.25 9.375V10.625C9.25 10.9688 8.96875 11.25 8.625 11.25H7.375C7.03125 11.25 6.75 10.9688 6.75 10.625V9.375C6.75 9.03125 7.03125 8.75 7.375 8.75ZM10.5 9.375C10.5 9.03125 10.7812 8.75 11.125 8.75H12.375C12.7188 8.75 13 9.03125 13 9.375V10.625C13 10.9688 12.7188 11.25 12.375 11.25H11.125C10.7812 11.25 10.5 10.9688 10.5 10.625V9.375ZM3.625 3.75H4.875C5.21875 3.75 5.5 4.03125 5.5 4.375V5.625C5.5 5.96875 5.21875 6.25 4.875 6.25H3.625C3.28125 6.25 3 5.96875 3 5.625V4.375C3 4.03125 3.28125 3.75 3.625 3.75ZM6.75 4.375C6.75 4.03125 7.03125 3.75 7.375 3.75H8.625C8.96875 3.75 9.25 4.03125 9.25 4.375V5.625C9.25 5.96875 8.96875 6.25 8.625 6.25H7.375C7.03125 6.25 6.75 5.96875 6.75 5.625V4.375ZM11.125 3.75H12.375C12.7188 3.75 13 4.03125 13 4.375V5.625C13 5.96875 12.7188 6.25 12.375 6.25H11.125C10.7812 6.25 10.5 5.96875 10.5 5.625V4.375C10.5 4.03125 10.7812 3.75 11.125 3.75ZM23 10.625C23 9.7962 22.6708 9.00134 22.0847 8.41529C21.4987 7.82924 20.7038 7.5 19.875 7.5C19.0462 7.5 18.2513 7.82924 17.6653 8.41529C17.0792 9.00134 16.75 9.7962 16.75 10.625C16.75 11.4538 17.0792 12.2487 17.6653 12.8347C18.2513 13.4208 19.0462 13.75 19.875 13.75C20.7038 13.75 21.4987 13.4208 22.0847 12.8347C22.6708 12.2487 23 11.4538 23 10.625ZM14.25 18.6367C14.25 19.3906 14.8594 20 15.6133 20H24.1367C24.8906 20 25.5 19.3906 25.5 18.6367C25.5 16.6289 23.8711 15 21.8633 15H17.8867C15.8789 15 14.25 16.6289 14.25 18.6367Z" fill="#1F2833"/>
</g>
<defs>
<clipPath id="clip0_117_4120">
<rect width="25" height="20" fill="white" transform="translate(0.5)"/>
</clipPath>
</defs>
</svg>
