<svg width="18" height="16" viewBox="0 0 18 16" fill="none" xmlns="http://www.w3.org/2000/svg">
<path d="M8 14.7692C5.78462 14.7692 3.63077 13.6615 2.33846 11.6923H5.53846V10.4615H0.615385V15.3846H1.84615V13.1077C3.38462 14.9538 5.6 16 8 16V14.7692ZM10.4615 4.30769H13.6615C11.6308 1.16923 7.44615 0.307692 4.30769 2.33846C2.4 3.56923 1.23077 5.72308 1.23077 8H0C0 3.56923 3.56923 0 8 0C10.4 0 12.6154 1.04615 14.1538 2.89231V0.615385H15.3846V5.53846H10.4615V4.30769Z" fill="#1F2833"/>
<path d="M16.9229 9.19829H15.5383V8.2914C15.5383 7.79126 15.1243 7.38452 14.6152 7.38452H11.846C11.3369 7.38452 10.9229 7.79126 10.9229 8.2914V9.19829H9.53831C9.02923 9.19829 8.61523 9.60502 8.61523 10.1052V11.4655H17.846V10.1052C17.846 9.60502 17.432 9.19829 16.9229 9.19829ZM11.846 8.2914H14.6152V9.19829H11.846V8.2914ZM14.1537 12.8258H12.3075V11.9189H8.61523V15.093C8.61523 15.5932 9.02923 15.9999 9.53831 15.9999H16.9229C17.432 15.9999 17.846 15.5932 17.846 15.093V11.9189H14.1537V12.8258Z" fill="#1F2833"/>
</svg>
