<svg width="18" height="18" viewBox="0 0 18 18" fill="none" xmlns="http://www.w3.org/2000/svg">
<path d="M0.585786 10.4142C-0.195263 9.63314 -0.195262 8.36681 0.585787 7.58576L7.25763 0.913911C8.03868 0.132862 9.30501 0.132863 10.0861 0.913912L16.7579 7.58576C17.539 8.36681 17.539 9.63314 16.7579 10.4142L10.0861 17.086C9.30501 17.8671 8.03868 17.8671 7.25763 17.086L0.585786 10.4142Z" fill="#F0AD00"/>
<path d="M6.87849 11.8429C6.48797 12.2334 5.8548 12.2334 5.46428 11.8429L3.69639 10.075C3.40644 9.78505 3.40644 9.31495 3.69639 9.025V9.025C3.98634 8.73505 4.45644 8.73505 4.74639 9.025L6.17139 10.45L10.5964 6.025C10.8863 5.73505 11.3564 5.73505 11.6464 6.025V6.025C11.9363 6.31495 11.9363 6.78505 11.6464 7.075L6.87849 11.8429Z" fill="white"/>
</svg>
