<svg width="122" height="122" viewBox="0 0 122 122" fill="none" xmlns="http://www.w3.org/2000/svg">
<path d="M122 61C122 73.8819 117.922 86.4332 110.35 96.8549C102.778 107.277 92.1015 115.034 79.85 119.014C67.5986 122.995 54.4014 122.995 42.15 119.014C29.8985 115.034 19.2218 107.277 11.65 96.8549L38.0786 77.6534C41.5954 82.4939 46.5544 86.0968 52.2448 87.9457C57.9352 89.7946 64.0648 89.7946 69.7552 87.9457C75.4456 86.0968 80.4046 82.4939 83.9214 77.6534C87.4383 72.8128 89.3324 66.9832 89.3324 61H122Z" fill="#D1D1D2"/>
<path d="M11.4957 25.3583C19.0225 14.904 29.6657 7.10095 41.8999 3.0674C54.134 -0.966144 67.3311 -1.02307 79.5996 2.90478L69.6389 34.0167C63.9406 32.1924 57.811 32.2188 52.1286 34.0923C46.4463 35.9657 41.5029 39.59 38.007 44.4456L11.4957 25.3583Z" fill="#EAEBEB"/>
<path d="M11.6312 96.8291C4.06484 86.4034 -0.00673661 73.85 8.36675e-06 60.9681C0.00675334 48.0861 4.09148 35.537 11.6687 25.1193L38.0873 44.3346C34.5679 49.1733 32.6707 55.002 32.6676 60.9852C32.6644 66.9684 34.5556 72.799 38.0699 77.6414L11.6312 96.8291Z" fill="#0069F0"/>
<path d="M70.0507 33.8883L79.9695 3.28756C92.074 7.26617 102.623 14.951 110.122 25.2572C117.622 35.5635 121.688 47.9655 121.749 60.707L89.5811 60.7297C89.5249 54.7815 87.614 48.9966 84.1117 44.1833C80.6094 39.3699 75.6931 35.7719 70.0507 33.8883Z" fill="white" stroke="#0069F0" stroke-width="0.5"/>
</svg>
