<svg width="20" height="20" viewBox="0 0 20 20" fill="none" xmlns="http://www.w3.org/2000/svg">
<path d="M2.92969 2.92969C4.72656 1.13281 7.22656 0 10 0C15.5078 0 20 4.49219 20 10C20 15.5469 15.5078 20 10 20C7.85156 20 5.89844 19.3359 4.25781 18.2422C3.71094 17.8125 3.55469 17.0312 3.94531 16.4844C4.33594 15.8984 5.11719 15.7812 5.70312 16.1719C6.91406 17.0312 8.39844 17.5 10 17.5C14.1406 17.5 17.5 14.1406 17.5 10C17.5 5.85938 14.1406 2.5 10 2.5C7.92969 2.5 6.05469 3.35938 4.6875 4.72656L5.89844 5.89844C6.48438 6.52344 6.05469 7.5 5.23438 7.5H0.9375C0.390625 7.5 0 7.10938 0 6.5625V2.26562C0 1.44531 0.976562 1.01562 1.60156 1.60156L2.92969 2.92969ZM10 5H9.96094C10.5078 5 10.8984 5.42969 10.8984 5.9375V9.64844L13.4375 12.1875C13.8281 12.5391 13.8281 13.125 13.4375 13.4766C13.0859 13.8672 12.5 13.8672 12.1484 13.4766L9.33594 10.6641C9.14062 10.5078 9.0625 10.2734 9.0625 10V5.9375C9.0625 5.42969 9.45312 5 10 5Z" fill="#0069F0"/>
</svg>
