<svg width="31" height="31" viewBox="0 0 31 31" fill="none" xmlns="http://www.w3.org/2000/svg">
<path fill-rule="evenodd" clip-rule="evenodd" d="M15.5 0C6.94833 0 0 6.94833 0 15.5C0 24.0517 6.94855 31.0048 15.5007 31C18.6767 30.9982 21.7726 30.0116 24.3708 28.1889C24.4531 28.1345 24.5237 28.0641 24.5783 27.982C24.6329 27.8998 24.6706 27.8076 24.6889 27.7107C24.7073 27.6137 24.7061 27.5141 24.6853 27.4177C24.6645 27.3212 24.6246 27.2299 24.5679 27.1492C24.5113 27.0684 24.439 26.9998 24.3554 26.9475C24.2718 26.8951 24.1785 26.8601 24.0811 26.8444C23.9837 26.8287 23.8842 26.8327 23.7883 26.8561C23.6925 26.8796 23.6023 26.922 23.5232 26.9808C21.1713 28.6307 18.3701 29.5222 15.4993 29.5238C7.7459 29.5281 1.47619 23.2539 1.47619 15.5C1.47619 7.74612 7.74612 1.47619 15.5 1.47619C23.2539 1.47619 29.5254 7.7463 29.5238 15.5C29.5232 18.3732 28.6369 21.1766 26.9888 23.5311C26.9313 23.6104 26.8901 23.7004 26.8677 23.7958C26.8454 23.8912 26.8422 23.9901 26.8585 24.0867C26.8747 24.1833 26.91 24.2758 26.9623 24.3586C27.0147 24.4414 27.083 24.513 27.1632 24.5692C27.2435 24.6254 27.3342 24.665 27.4299 24.6858C27.5257 24.7065 27.6246 24.708 27.721 24.6902C27.8173 24.6723 27.9091 24.6354 27.9911 24.5817C28.073 24.528 28.1434 24.4585 28.1983 24.3773C30.0195 21.7755 30.9994 18.6766 31 15.5C31.0017 6.94815 24.0517 0 15.5 0ZM15.5 2.95238C13.8855 2.95285 12.2871 3.26845 10.7932 3.87572C10.7034 3.91224 10.6216 3.96611 10.5525 4.03424C10.4835 4.10237 10.4286 4.18343 10.3909 4.27279C10.3532 4.36216 10.3335 4.45807 10.3328 4.55505C10.3322 4.65204 10.3507 4.7482 10.3872 4.83804C10.4238 4.92788 10.4777 5.00965 10.5458 5.07866C10.614 5.14767 10.695 5.20259 10.7844 5.24027C10.8738 5.27795 10.9697 5.29765 11.0667 5.29825C11.1637 5.29886 11.2598 5.28035 11.3497 5.24379C12.6689 4.70755 14.0778 4.42899 15.5 4.42857C21.6231 4.42677 26.5714 9.37667 26.5714 15.5C26.5714 21.6233 21.6233 26.5714 15.5 26.5714C9.37668 26.5714 4.42659 21.623 4.42857 15.5C4.42903 14.0779 4.70802 12.6689 5.24451 11.3497C5.28108 11.2598 5.2996 11.1637 5.299 11.0667C5.2984 10.9697 5.2787 10.8738 5.24102 10.7844C5.20334 10.695 5.14843 10.6139 5.07941 10.5458C5.0104 10.4776 4.92863 10.4237 4.83878 10.3872C4.74894 10.3507 4.65277 10.3322 4.55578 10.3328C4.45879 10.3334 4.36287 10.3531 4.27351 10.3908C4.18414 10.4286 4.10308 10.4835 4.03495 10.5525C3.96682 10.6216 3.91296 10.7033 3.87644 10.7932C3.26893 12.287 2.9529 13.8853 2.95238 15.5C2.95014 22.4214 8.57888 28.0476 15.5 28.0476C22.4211 28.0476 28.0476 22.4211 28.0476 15.5C28.0476 8.57888 22.4214 2.95035 15.5 2.95238ZM20.7186 9.57361C20.1503 9.57361 19.5815 9.78737 19.1523 10.2166L13.4119 15.9563L11.8456 14.3929C10.9872 13.5345 9.57354 13.5345 8.71515 14.3929C7.85676 15.2512 7.85676 16.6649 8.71515 17.5233L11.8456 20.6559C12.704 21.5142 14.1205 21.5142 14.9789 20.6559L22.2849 13.347C23.1432 12.4886 23.1432 11.075 22.2849 10.2166C21.8557 9.78737 21.2868 9.57361 20.7186 9.57361ZM20.72 11.0361C20.9063 11.0361 21.0928 11.1112 21.2419 11.2603C21.54 11.5584 21.54 12.0051 21.2419 12.3033L13.9352 19.61C13.637 19.9081 13.1896 19.9081 12.8914 19.61L9.75886 16.4796C9.46069 16.1814 9.46069 15.7347 9.75886 15.4366C10.057 15.1384 10.5044 15.1384 10.8026 15.4366L12.8914 17.5233C13.0299 17.6616 13.2176 17.7394 13.4133 17.7394C13.609 17.7394 13.7967 17.6616 13.9352 17.5233L20.1981 11.2603C20.3472 11.1112 20.5337 11.0361 20.72 11.0361ZM25.9494 25.2005C25.8506 25.1989 25.7524 25.2171 25.6608 25.2541C25.5692 25.2911 25.4859 25.3462 25.416 25.416C25.3474 25.4845 25.2929 25.5659 25.2558 25.6555C25.2186 25.7452 25.1995 25.8412 25.1995 25.9382C25.1995 26.0352 25.2186 26.1313 25.2558 26.2209C25.2929 26.3105 25.3474 26.3919 25.416 26.4604C25.4845 26.5291 25.5659 26.5835 25.6556 26.6206C25.7452 26.6578 25.8412 26.6769 25.9382 26.6769C26.0352 26.6769 26.1313 26.6578 26.2209 26.6206C26.3105 26.5835 26.3919 26.5291 26.4604 26.4604C26.5291 26.3919 26.5835 26.3105 26.6206 26.2209C26.6578 26.1313 26.6769 26.0352 26.6769 25.9382C26.6769 25.8412 26.6578 25.7452 26.6206 25.6555C26.5835 25.5659 26.5291 25.4845 26.4604 25.416C26.3246 25.2804 26.1413 25.2031 25.9494 25.2005Z" fill="#3FAF13"/>
</svg>
