<svg width="42" height="48" viewBox="0 0 42 48" fill="none" xmlns="http://www.w3.org/2000/svg">
<path d="M0 3.93443L21 0L42 3.93443V24C42 34.3869 27.375 43.6721 21 48C14 43.1475 0 34.2295 0 24V3.93443Z" fill="#FF4438"/>
<path d="M11 20H6V30H11V20Z" stroke="#1F2833" stroke-width="1.5" stroke-miterlimit="10" stroke-linecap="round" stroke-linejoin="round"/>
<path d="M11 15L22 7" stroke="#1F2833" stroke-width="1.5" stroke-miterlimit="10" stroke-linecap="round" stroke-linejoin="round"/>
<path d="M13 17V21" stroke="#1F2833" stroke-width="1.5" stroke-miterlimit="10" stroke-linecap="round" stroke-linejoin="round"/>
<path d="M32 15L22 7" stroke="#1F2833" stroke-width="1.5" stroke-miterlimit="10" stroke-linecap="round" stroke-linejoin="round"/>
<path d="M30 17V23" stroke="#1F2833" stroke-width="1.5" stroke-miterlimit="10" stroke-linecap="round" stroke-linejoin="round"/>
<path d="M24 23.5V17H19V22.5" stroke="#1F2833" stroke-width="1.5" stroke-miterlimit="10" stroke-linejoin="round"/>
<path d="M11 21.1064C11 21.1064 14.3138 20.7357 15.8812 21.3783C17.4486 22.0209 19.822 23.4049 19.822 23.4049C19.822 23.4049 23.3449 23.4049 24.3301 23.4049C25.7855 23.4049 26.2781 25.0361 25.8527 26" stroke="#1F2833" stroke-width="1.5" stroke-miterlimit="10" stroke-linejoin="round"/>
<path d="M17.7724 27.0895C17.7724 27.0895 18.7949 26.1141 19.444 26.0002C20.0931 25.8864 25.6754 26.0002 26 26.0002C26.3462 26.0002 33.654 22.4669 34.3031 22.1481C35.8564 21.3852 37 23.6811 35.32 24.6074C33.9569 25.3589 26.9898 29.1389 25.2804 30.1181C23.5711 31.0972 21.6238 31.2794 18.7244 30.5735C15.8251 29.8676 14.0941 29.2072 11 29.2072" stroke="#1F2833" stroke-width="1.5" stroke-miterlimit="10" stroke-linecap="round" stroke-linejoin="round"/>
</svg>
