<svg width="56" height="22" viewBox="0 0 56 22" fill="none" xmlns="http://www.w3.org/2000/svg">
<path d="M7.90089 5.54802V8.45565C7.0284 8.22171 6.18946 8.25513 5.35053 8.5225C4.84717 8.6896 4.37737 8.92355 4.00824 9.29118C3.57199 9.72566 3.37065 10.227 3.37065 10.8286C3.37065 14.2375 3.37065 17.613 3.37065 21.022V21.3228H0.0149144C0.0149144 21.2559 0.0149144 21.1891 0.0149144 21.0888C0.0149144 17.5796 -0.018643 14.0704 0.0149144 10.5278C0.0484717 8.62276 0.988077 7.18565 2.63239 6.18302C3.33709 5.74854 4.14247 5.58144 4.94784 5.44775C5.85389 5.31407 6.7935 5.31407 7.69955 5.48117C7.7331 5.51459 7.80022 5.5146 7.90089 5.54802Z" fill="white"/>
<path d="M8.94116 16.0423V10.6281C8.94116 7.05201 11.8942 5.34753 14.7801 5.34753C17.6661 5.34753 20.552 7.05201 20.552 10.6281V14.8391H12.0956V15.9086C12.0956 17.3123 13.3707 18.1478 14.713 18.1478C15.8204 18.1478 16.8943 17.7468 17.4647 16.6105L20.0822 18.1812C18.9748 20.2868 16.6929 21.3228 14.7801 21.3228C11.8607 21.3228 8.94116 19.5849 8.94116 16.0423ZM17.5318 10.6949C17.5318 9.25781 16.1895 8.52254 14.8137 8.52254C13.4378 8.52254 12.0284 9.22438 12.0956 10.7618V12.1654H17.5318V10.6949Z" fill="white"/>
<path d="M31.76 5.74854H35.2835L29.7466 21.2894H26.3237L20.8203 5.74854H24.3103L27.4647 14.8057L28.1694 16.7107L28.7063 14.8057L31.76 5.74854Z" fill="white"/>
<path d="M49.2213 10.8878L55.9999 0.126221H50.4965L46.8723 6.50966L47.1743 7.07781L49.2213 10.8878Z" fill="white"/>
<path d="M47.1407 14.7312L46.8052 15.3996L50.4629 21.8499H55.9999L49.1877 11.1552L47.1407 14.7312Z" fill="white"/>
<path d="M47.2623 10.9956L45.5173 14.0369L41.4904 21.6903H35.9199L42.3629 10.8953L35.987 0H41.4904L45.5173 7.72028L47.2623 10.9956Z" fill="#FF4438"/>
</svg>
