<svg width="42" height="48" viewBox="0 0 42 48" fill="none" xmlns="http://www.w3.org/2000/svg">
<path d="M0 3.93443L21 0L42 3.93443V24C42 34.3869 27.375 43.6721 21 48C14 43.1475 0 34.2295 0 24V3.93443Z" fill="#FF4438"/>
<path d="M8.02002 17.4C8.02002 17.4 12.88 17.48 21 15.38C29.14 13.26 33.8 9.26001 33.8 9.26001" stroke="#1F2833" stroke-width="1.5" stroke-miterlimit="10" stroke-linecap="round" stroke-linejoin="round"/>
<path d="M34 12.36V8.95996H30.22" stroke="#1F2833" stroke-width="1.5" stroke-miterlimit="10" stroke-linecap="round" stroke-linejoin="round"/>
<path d="M27.54 31.88H34V14.72C34 14.72 31.7 16.7 27.54 18.52V31.88Z" stroke="#1F2833" stroke-width="1.5" stroke-miterlimit="10" stroke-linecap="round" stroke-linejoin="round"/>
<path d="M21 20.64C19.82 20.9 18.74 21.12 17.72 21.3V31.9H24.18V19.78C23.18 20.1 22.12 20.38 21 20.64Z" stroke="#1F2833" stroke-width="1.5" stroke-miterlimit="10" stroke-linecap="round" stroke-linejoin="round"/>
<path d="M8.06006 22.3601V31.8801H14.5201V21.8201C10.5601 22.3801 8.36006 22.3601 8.06006 22.3601Z" stroke="#1F2833" stroke-width="1.5" stroke-miterlimit="10" stroke-linecap="round" stroke-linejoin="round"/>
</svg>
