<svg width="18" height="16" viewBox="0 0 18 16" fill="none" xmlns="http://www.w3.org/2000/svg">
<path d="M5 14C4.2 14 3.4 13.3 3 13C1 11.6 0.4 11.1 0 10.8V15C0 15.5522 0.447812 16 1 16H9C9.55219 16 10 15.5522 10 15V10.8C9.6 11.1 9 11.6 7 13C6.6 13.3 5.8 14 5 14ZM9 8H1C0.447812 8 0 8.44781 0 9V9.5C0.8 10.1 0.7 10.1 3.6 12.2C3.9 12.4 4.5 13 5 13C5.5 13 6.1 12.4 6.4 12.3C9.3 10.2 9.2 10.2 10 9.6V9C10 8.44781 9.55219 8 9 8ZM17 5H7C6.44781 5 6 5.44781 6 6V7H9C10.0378 7 10.8934 7.79438 10.9909 8.80688L11 8.8V13H17C17.5522 13 18 12.5522 18 12V6C18 5.44781 17.5522 5 17 5ZM16 9H14V7H16V9ZM5 6C5 4.89719 5.89719 4 7 4H14V1C14 0.447812 13.5522 0 13 0H3C2.44781 0 2 0.447812 2 1V7H5V6Z" fill="#1F2833"/>
</svg>
