<svg width="32" height="29" viewBox="0 0 32 29" fill="none" xmlns="http://www.w3.org/2000/svg">
<path d="M15.2191 0.126748C15.7189 -0.0422494 16.2811 -0.0422494 16.7809 0.126748L30.7739 5.53467C31.6485 5.87266 32.1482 6.71765 31.9608 7.56264C31.7734 8.40763 30.9613 8.97095 30.0243 8.97095V9.42161C30.0243 10.2103 29.3371 10.7736 28.525 10.7736H3.53743C2.66286 10.7736 2.03817 10.2103 2.03817 9.42161V8.97095C1.03867 8.97095 0.226572 8.40763 0.0391646 7.56264C-0.148243 6.71765 0.35151 5.87266 1.22608 5.53467L15.2191 0.126748ZM8.0352 12.5762V23.3921H10.534V12.5762H14.532V23.3921H17.5305V12.5762H21.5285V23.3921H24.0273V12.5762H27.9628V23.6737C28.0253 23.6737 28.0878 23.6737 28.0878 23.7301L31.0863 25.5327C31.8359 25.9834 32.1482 26.772 31.8984 27.5607C31.6485 28.293 30.8989 28.8 30.0243 28.8H2.03817C1.10114 28.8 0.35151 28.293 0.101634 27.5607C-0.148243 26.772 0.164103 25.9834 0.913731 25.5327L3.91224 23.7301C3.91224 23.6737 3.97471 23.6737 4.03718 23.6737V12.5762H8.0352ZM16.0312 7.16831C17.0932 7.16831 18.0302 6.37966 18.0302 5.36567C18.0302 4.40802 17.0932 3.56303 16.0312 3.56303C14.9068 3.56303 14.0322 4.40802 14.0322 5.36567C14.0322 6.37966 14.9068 7.16831 16.0312 7.16831Z" fill="#002F6C"/>
</svg>
