<svg width="19" height="15" viewBox="0 0 19 15" fill="none" xmlns="http://www.w3.org/2000/svg">
<path d="M19 3.92958e-05L15.7037 3.06421L18.8569 8.29185L19 8.11658V3.92958e-05ZM0 0.0447433V8.92628C0.178824 8.94916 0.393691 8.96178 0.610515 8.96402C1.08432 8.96894 1.47486 8.93847 1.69423 8.91905L3.79601 3.68058L0 0.0447433ZM15.5335 4.16757L15.2525 4.3467C15.2465 4.35051 15.0384 4.47786 14.9773 4.51537L14.554 4.76779L14.56 4.77133C14.3638 4.89152 14.3093 4.92534 14.0867 5.06149C13.9737 5.13057 13.9709 5.13219 13.8638 5.19773C13.0539 4.76889 12.1751 4.43929 11.1496 4.18011C9.85984 4.56393 8.49352 5.11933 7.12919 5.64044C7.6956 6.31226 8.32507 6.53102 8.95914 6.53885C9.69439 6.54789 10.446 6.23296 10.9636 5.88012L11.259 5.67882L11.5554 6.10069L16.1639 9.37701L17.9645 8.198L15.5335 4.16757ZM4.32996 4.2753L2.5191 8.78843L3.1837 9.29181L4.41291 7.91944L4.51138 7.80955L4.65987 7.80042C4.71974 7.79673 4.77882 7.795 4.8371 7.79531C5.24472 7.79791 5.60915 7.9021 5.8825 8.13973C6.08495 8.31556 6.21955 8.54966 6.29762 8.82071L6.38863 8.81513C6.86742 8.78564 7.29879 8.88295 7.61126 9.15444C7.92368 9.426 8.07548 9.83553 8.10542 10.3072L8.10821 10.3497C8.36527 10.3975 8.59538 10.4972 8.78251 10.6598C9.09497 10.9314 9.24673 11.3408 9.27667 11.8125L9.28453 11.9352C9.31004 11.9431 9.33533 11.9517 9.36037 11.961L9.44152 11.8489L9.65986 11.547L9.77215 11.3917L10.0647 11.597L12.4369 13.2616C12.6949 13.1989 12.8487 13.1014 12.9342 12.983C13.0199 12.8646 13.0633 12.6893 13.039 12.4283L10.1946 10.422L9.90251 10.2159L10.1097 9.93104L10.3759 9.56283L10.6685 9.76818L13.8751 12.0182C14.1332 11.9555 14.2871 11.858 14.3726 11.7396C14.4582 11.6213 14.5016 11.4464 14.4774 11.1859L10.7892 8.60867L10.4963 8.40383L10.9119 7.82665L11.2051 8.03141L14.8938 10.6093C15.1521 10.5466 15.3061 10.449 15.3917 10.3306C15.4775 10.212 15.5208 10.0366 15.4963 9.77522L11.088 6.64123C10.503 6.98282 9.7547 7.25647 8.9502 7.24656C8.0087 7.23496 7.00162 6.79181 6.26078 5.6719C6.23148 5.62761 6.21262 5.57742 6.2056 5.52501C6.19857 5.4726 6.20356 5.41931 6.22018 5.36905C6.23681 5.31879 6.26466 5.27284 6.30169 5.23457C6.33871 5.1963 6.38397 5.16669 6.43413 5.14791C6.9536 4.95349 7.47846 4.74805 8.00455 4.54423L4.33004 4.27554L4.32996 4.2753ZM4.84496 8.50664L2.9464 10.6262C2.9834 10.8915 3.06774 11.0565 3.18138 11.1552C3.29502 11.254 3.47177 11.3158 3.74356 11.3189L5.64208 9.19942C5.60508 8.93414 5.52074 8.76909 5.4071 8.67032C5.29346 8.57156 5.11675 8.50975 4.84492 8.50668L4.84496 8.50664ZM6.57364 9.52143L4.42963 11.9151C4.4666 12.1803 4.55098 12.3454 4.66458 12.4442C4.77834 12.5429 4.95497 12.6047 5.2268 12.6077L7.3708 10.2142C7.33384 9.94885 7.24946 9.78387 7.13582 9.68507C7.02222 9.5863 6.84551 9.52446 6.57368 9.52135L6.57364 9.52143ZM7.74478 11.0267L5.84637 13.1463C5.88337 13.4116 5.96772 13.5766 6.08136 13.6754C6.19504 13.7742 6.37175 13.8359 6.64353 13.839L8.54202 11.7197C8.50501 11.4543 8.42067 11.2893 8.30703 11.1905C8.19339 11.0917 8.01668 11.0299 7.74486 11.0268L7.74478 11.0267ZM8.73078 12.5655L7.18228 14.3065C7.2192 14.5723 7.30354 14.7375 7.4173 14.8363C7.53087 14.935 7.70737 14.9968 7.9788 15L9.52738 13.259C9.49042 12.9933 9.40604 12.8281 9.29228 12.7292C9.17876 12.6305 9.00225 12.5688 8.73082 12.5655L8.73078 12.5655ZM10.1415 12.7538C10.2091 12.9355 10.2482 13.1368 10.2618 13.3511L10.2711 13.4968L9.94067 13.8682L11.0074 14.6167C11.2654 14.5541 11.4192 14.4565 11.5047 14.3381C11.5904 14.2198 11.6338 14.0447 11.6096 13.784L10.1415 12.7539L10.1415 12.7538Z" fill="#1F2833"/>
</svg>
