<svg width="20" height="18" viewBox="0 0 20 18" fill="none" xmlns="http://www.w3.org/2000/svg">
<path d="M13.8889 3.375V3.39961C13.7049 3.38555 13.5208 3.375 13.3333 3.375H8.88889C8.31597 3.375 7.76042 3.44883 7.22917 3.58594C7.22569 3.51562 7.22222 3.44531 7.22222 3.375C7.22222 1.51172 8.71528 0 10.5556 0C12.3958 0 13.8889 1.51172 13.8889 3.375ZM13.3333 4.5C13.4549 4.5 13.5764 4.50352 13.6944 4.51055C13.8403 4.52109 13.9861 4.53516 14.1319 4.55625C14.7431 3.83555 15.6528 3.375 16.6667 3.375H17.066C17.4271 3.375 17.691 3.71953 17.6042 4.07461L17.125 6.01523C17.6736 6.53555 18.1215 7.16836 18.4271 7.875H18.8889C19.5035 7.875 20 8.37773 20 9V12.375C20 12.9973 19.5035 13.5 18.8889 13.5H17.7778C17.4618 13.9254 17.0868 14.3051 16.6667 14.625V16.875C16.6667 17.4973 16.1701 18 15.5556 18H14.4444C13.8299 18 13.3333 17.4973 13.3333 16.875V15.75H8.88889V16.875C8.88889 17.4973 8.39236 18 7.77778 18H6.66667C6.05208 18 5.55556 17.4973 5.55556 16.875V14.625C4.34375 13.7039 3.51736 12.2941 3.36111 10.6875H2.36111C1.05556 10.6875 0 9.61875 0 8.29688C0 6.975 1.05556 5.90625 2.36111 5.90625H2.5C2.96181 5.90625 3.33333 6.28242 3.33333 6.75C3.33333 7.21758 2.96181 7.59375 2.5 7.59375H2.36111C1.97917 7.59375 1.66667 7.91016 1.66667 8.29688C1.66667 8.68359 1.97917 9 2.36111 9H3.44444C3.86458 6.89766 5.44792 5.2207 7.48264 4.68281C7.93056 4.56328 8.40278 4.5 8.88889 4.5H13.3333ZM15.5556 9.28125C15.5556 9.05747 15.4678 8.84286 15.3115 8.68463C15.1552 8.52639 14.9432 8.4375 14.7222 8.4375C14.5012 8.4375 14.2892 8.52639 14.133 8.68463C13.9767 8.84286 13.8889 9.05747 13.8889 9.28125C13.8889 9.50503 13.9767 9.71964 14.133 9.87787C14.2892 10.0361 14.5012 10.125 14.7222 10.125C14.9432 10.125 15.1552 10.0361 15.3115 9.87787C15.4678 9.71964 15.5556 9.50503 15.5556 9.28125Z" fill="#1F2833"/>
</svg>
