<svg width="17" height="15" viewBox="0 0 17 15" fill="none" xmlns="http://www.w3.org/2000/svg">
<path d="M15.1386 3.54348H13.7085V0.804348C13.7085 0.72363 13.6763 0.646218 13.6188 0.589141C13.5613 0.532065 13.4834 0.5 13.4021 0.5H3.59742C3.51616 0.5 3.43823 0.532065 3.38077 0.589141C3.3233 0.646218 3.29102 0.72363 3.29102 0.804348V3.54348H1.86091C0.960106 3.54348 0.227051 4.22826 0.227051 5.06522V11.1522C0.227051 11.2329 0.259332 11.3103 0.316793 11.3674C0.374253 11.4245 0.452186 11.4565 0.533448 11.4565H3.29102V14.1957C3.29102 14.2764 3.3233 14.3538 3.38077 14.4109C3.43823 14.4679 3.51616 14.5 3.59742 14.5H13.4021C13.4834 14.5 13.5613 14.4679 13.6188 14.4109C13.6763 14.3538 13.7085 14.2764 13.7085 14.1957V11.4565H16.4661C16.5474 11.4565 16.6253 11.4245 16.6828 11.3674C16.7402 11.3103 16.7725 11.2329 16.7725 11.1522V5.06522C16.7725 4.22826 16.0394 3.54348 15.1386 3.54348ZM3.90382 1.1087H13.0957V3.54348H3.90382V1.1087ZM13.0957 13.8913H3.90382V9.63043H13.0957V13.8913ZM16.1597 10.8478H13.7085V9.32609C13.7085 9.24537 13.6763 9.16796 13.6188 9.11088C13.5613 9.0538 13.4834 9.02174 13.4021 9.02174H3.59742C3.51616 9.02174 3.43823 9.0538 3.38077 9.11088C3.3233 9.16796 3.29102 9.24537 3.29102 9.32609V10.8478H0.839845V5.06522C0.839845 4.56152 1.29944 4.15217 1.86091 4.15217H15.1386C15.7001 4.15217 16.1597 4.56152 16.1597 5.06522V10.8478ZM13.7085 6.58696C13.7085 6.70734 13.6726 6.82503 13.6053 6.92513C13.5379 7.02523 13.4422 7.10325 13.3302 7.14932C13.2183 7.19539 13.0951 7.20744 12.9762 7.18396C12.8573 7.16047 12.7481 7.1025 12.6624 7.01737C12.5767 6.93224 12.5184 6.82378 12.4947 6.70571C12.4711 6.58763 12.4832 6.46524 12.5296 6.35402C12.576 6.24279 12.6545 6.14773 12.7553 6.08084C12.8561 6.01396 12.9745 5.97826 13.0957 5.97826C13.2583 5.97826 13.4141 6.04239 13.529 6.15654C13.644 6.2707 13.7085 6.42552 13.7085 6.58696Z" fill="#0069F0"/>
</svg>
