<svg width="21" height="14" viewBox="0 0 21 14" fill="none" xmlns="http://www.w3.org/2000/svg">
<path d="M2.33333 0C1.04635 0 0 1.04635 0 2.33333V11.6667C0 12.9536 1.04635 14 2.33333 14H18.6667C19.9536 14 21 12.9536 21 11.6667V2.33333C21 1.04635 19.9536 0 18.6667 0H2.33333ZM9.91667 4.66667H18.0833C18.4042 4.66667 18.6667 4.92917 18.6667 5.25C18.6667 5.57083 18.4042 5.83333 18.0833 5.83333H9.91667C9.59583 5.83333 9.33333 5.57083 9.33333 5.25C9.33333 4.92917 9.59583 4.66667 9.91667 4.66667ZM9.33333 8.75C9.33333 8.42917 9.59583 8.16667 9.91667 8.16667H18.0833C18.4042 8.16667 18.6667 8.42917 18.6667 8.75C18.6667 9.07083 18.4042 9.33333 18.0833 9.33333H9.91667C9.59583 9.33333 9.33333 9.07083 9.33333 8.75ZM5.97917 3.20833V3.7151C6.2526 3.75885 6.51146 3.82083 6.74844 3.88646C7.13854 3.98854 7.36823 4.38958 7.26615 4.77969C7.16406 5.16979 6.76302 5.39948 6.37292 5.2974C5.97187 5.19167 5.58542 5.1151 5.23542 5.10781C4.9474 5.10417 4.65208 5.17344 4.45156 5.2901C4.27656 5.39219 4.22552 5.49427 4.22552 5.62917C4.22552 5.69479 4.22917 5.75677 4.41875 5.87344C4.64844 6.01198 4.98385 6.11771 5.45052 6.25625L5.47604 6.26354C5.88437 6.3875 6.40937 6.54427 6.82865 6.81042C7.29896 7.10573 7.71458 7.58698 7.72552 8.32708C7.73646 9.08906 7.34271 9.64323 6.82135 9.96771C6.55885 10.1318 6.26719 10.2339 5.97552 10.2958V10.7917C5.97552 11.1927 5.6474 11.5208 5.24635 11.5208C4.84531 11.5208 4.51719 11.1927 4.51719 10.7917V10.2594C4.14167 10.1792 3.78802 10.0589 3.48906 9.95312C3.4125 9.9276 3.33958 9.90208 3.26667 9.87656C2.88385 9.74896 2.67969 9.33698 2.80729 8.95417C2.9349 8.57135 3.34687 8.36719 3.72969 8.49479C3.82083 8.52396 3.90833 8.55677 3.99219 8.58229C4.48802 8.75 4.86719 8.8776 5.27188 8.89219C5.58542 8.90312 5.87344 8.83385 6.05208 8.72083C6.20156 8.62969 6.27083 8.52031 6.26719 8.33802C6.26719 8.23229 6.23802 8.15573 6.05208 8.03906C5.8224 7.89323 5.49062 7.7875 5.03125 7.64896L4.96927 7.63073C4.57187 7.51042 4.0724 7.36094 3.67135 7.12031C3.20833 6.83958 2.77448 6.37292 2.77083 5.63646C2.76719 4.86719 3.20104 4.3349 3.71146 4.03594C3.96302 3.88646 4.2401 3.78802 4.52083 3.72604V3.20833C4.52083 2.80729 4.84896 2.47917 5.25 2.47917C5.65104 2.47917 5.97917 2.80729 5.97917 3.20833Z" fill="#1F2833"/>
</svg>
