<svg width="20" height="14" viewBox="0 0 20 14" fill="none" xmlns="http://www.w3.org/2000/svg">
<path fill-rule="evenodd" clip-rule="evenodd" d="M0 1.90909C0 1.40277 0.201136 0.917184 0.55916 0.55916C0.917184 0.201136 1.40277 0 1.90909 0H17.1818C17.6881 0 18.1737 0.201136 18.5317 0.55916C18.8898 0.917184 19.0909 1.40277 19.0909 1.90909V12.0909C19.0909 12.5972 18.8898 13.0828 18.5317 13.4408C18.1737 13.7989 17.6881 14 17.1818 14H1.90909C1.40277 14 0.917184 13.7989 0.55916 13.4408C0.201136 13.0828 0 12.5972 0 12.0909L0 1.90909ZM3.81818 5.09091C3.81818 4.41581 4.08636 3.76837 4.56373 3.291C5.04109 2.81364 5.68854 2.54545 6.36364 2.54545C7.03873 2.54545 7.68618 2.81364 8.16354 3.291C8.64091 3.76837 8.90909 4.41581 8.90909 5.09091C8.90909 5.76601 8.64091 6.41345 8.16354 6.89082C7.68618 7.36818 7.03873 7.63636 6.36364 7.63636C5.68854 7.63636 5.04109 7.36818 4.56373 6.89082C4.08636 6.41345 3.81818 5.76601 3.81818 5.09091ZM15.2727 5.09091H11.4545V3.81818H15.2727V5.09091ZM15.2727 8.90909H11.4545V7.63636H15.2727V8.90909ZM6.36364 8.90909C5.67181 8.90909 4.99364 9.10174 4.40514 9.46545C3.81663 9.82916 3.34103 10.3496 3.03164 10.9684L2.61164 11.8058C2.56297 11.9029 2.53998 12.0109 2.54484 12.1194C2.5497 12.2279 2.58227 12.3334 2.63942 12.4258C2.69658 12.5181 2.77643 12.5943 2.87138 12.6471C2.96632 12.6999 3.07319 12.7275 3.18182 12.7273H9.54545C9.65397 12.7273 9.76069 12.6995 9.85546 12.6466C9.95023 12.5938 10.0299 12.5176 10.0869 12.4252C10.1439 12.3329 10.1764 12.2275 10.1812 12.1191C10.186 12.0107 10.163 11.9028 10.1144 11.8058L9.69564 10.9684C9.38624 10.3496 8.91064 9.82916 8.32214 9.46545C7.73363 9.10174 7.05547 8.90909 6.36364 8.90909Z" fill="#1F2833"/>
</svg>
