<svg width="27" height="29" viewBox="0 0 27 29" fill="none" xmlns="http://www.w3.org/2000/svg">
<path d="M17.2173 11.8439C17.2173 11.3602 16.8273 10.9681 16.3463 10.9681H5.57457C5.09357 10.9681 4.70354 11.3602 4.70354 11.8439C4.70354 12.3275 5.09357 12.7197 5.57457 12.7197H16.3463C16.8273 12.7197 17.2173 12.3275 17.2173 11.8439Z" fill="#0069F0"/>
<path d="M12.0686 17.0306C12.0686 16.547 11.6785 16.1548 11.1975 16.1548H5.56489C5.08389 16.1548 4.69386 16.547 4.69386 17.0306C4.69386 17.5142 5.08389 17.9064 5.56489 17.9064H11.1975C11.6785 17.9064 12.0686 17.5142 12.0686 17.0306Z" fill="#0069F0"/>
<path d="M5.56489 21.3513C5.08389 21.3513 4.69386 21.7434 4.69386 22.2271C4.69386 22.7107 5.08389 23.1029 5.56489 23.1029H9.56193C10.0429 23.1029 10.433 22.7107 10.433 22.2271C10.433 21.7434 10.0429 21.3513 9.56193 21.3513H5.56489Z" fill="#0069F0"/>
<path d="M24.292 20.7372C23.811 20.7372 23.4209 21.1294 23.4209 21.613V25.2428C23.4209 26.3482 22.5267 27.2474 21.4272 27.2474H3.73574C2.63631 27.2474 1.74205 26.3482 1.74205 25.2428V6.29707C1.74205 5.1916 2.63631 4.29244 3.73574 4.29244H6.11654V4.51139C6.11654 5.7891 7.14919 6.82742 8.41992 6.82742H16.7431C18.0138 6.82742 19.0464 5.7891 19.0464 4.51139V4.29341H21.4272C22.5267 4.29341 23.4209 5.19258 23.4209 6.29804V7.01718C23.4209 7.50082 23.811 7.89299 24.292 7.89299C24.773 7.89299 25.163 7.50082 25.163 7.01718V6.29707C25.163 4.22627 23.4877 2.54082 21.4272 2.54082H19.0464V2.317C19.0464 1.03929 18.0138 0 16.7431 0H8.41992C7.14919 0 6.11654 1.03929 6.11654 2.317V2.54082H3.73574C1.67624 2.54082 0 4.22627 0 6.29707V25.2438C0 27.3146 1.67527 29 3.73574 29H21.4272C23.4867 29 25.163 27.3146 25.163 25.2438V21.614C25.163 21.1304 24.773 20.7372 24.292 20.7372ZM7.85859 2.317C7.85859 2.0056 8.11022 1.75259 8.41992 1.75259H16.7431C17.0528 1.75259 17.3044 2.0056 17.3044 2.317V4.51139C17.3044 4.82182 17.0528 5.07483 16.7431 5.07483H8.41992C8.11022 5.07483 7.85859 4.82182 7.85859 4.51139V2.317Z" fill="#0069F0"/>
<path d="M26.0514 10.9632C24.7875 9.69132 22.7289 9.69132 21.466 10.9632L13.4583 19.0148C13.2038 19.2698 13.0383 19.5928 12.9783 19.95L12.5399 22.5609C12.447 23.1097 12.626 23.6741 13.018 24.0682C13.3422 24.3952 13.7825 24.5752 14.2335 24.5752C14.3284 24.5752 14.4232 24.5674 14.5171 24.5519L17.1147 24.111C17.466 24.0507 17.7864 23.8853 18.0419 23.6293L26.0505 15.5768C27.3164 14.3039 27.3164 12.2351 26.0514 10.9632ZM16.8253 22.3828L14.2577 22.8518L14.6894 20.2555L20.4527 14.4606L22.576 16.5956L16.8253 22.3828ZM24.8204 14.336L23.8071 15.3559L21.6847 13.2218L22.698 12.2029C22.9903 11.9081 23.3754 11.7611 23.7597 11.7611C24.1439 11.7611 24.5281 11.9081 24.8213 12.2029C25.4049 12.7907 25.4049 13.7483 24.8204 14.336Z" fill="#0069F0"/>
</svg>
