<svg width="23" height="20" viewBox="0 0 23 20" fill="none" xmlns="http://www.w3.org/2000/svg">
<path d="M12 14.7188C12.5586 14.7188 13.0312 15.1914 12.9883 15.75C12.9883 16.3516 12.5586 16.7812 12 16.7812C11.4414 16.7812 10.9688 16.3516 10.9688 15.75C10.9688 15.1914 11.3984 14.7188 12 14.7188ZM12 13C11.6133 13 11.3125 12.6992 11.3125 12.3125V6.125C11.3125 5.78125 11.6562 5.4375 12 5.4375C12.3008 5.4375 12.6445 5.78125 12.6445 6.125V12.3125C12.6445 12.6992 12.3438 13 12 13ZM22.6562 16.3516C23.0859 17.082 23.0859 17.9414 22.6562 18.6719C22.2266 19.4453 21.4531 19.875 20.5938 19.875H3.40625C2.50391 19.875 1.73047 19.4453 1.30078 18.6719C0.871094 17.9414 0.871094 17.082 1.30078 16.3516L9.89453 1.82812C10.3242 1.09766 11.0977 0.625 12 0.625C12.8594 0.667969 13.6328 1.09766 14.0625 1.82812L22.6562 16.3516ZM21.4531 17.9844C21.668 17.6836 21.625 17.3398 21.4531 17.0391L12.8594 2.51562C12.6875 2.21484 12.3438 2.04297 12 2C11.6133 2 11.2695 2.21484 11.0977 2.51562L2.50391 17.0391C2.33203 17.3398 2.28906 17.6836 2.50391 17.9844C2.67578 18.3281 3.01953 18.5 3.40625 18.5H20.5508C20.9375 18.5 21.2812 18.3281 21.4531 17.9844Z" fill="#855F00"/>
</svg>
